# xmcd
#
# Track frame offsets:
#	150
#	13303
#	29025
#	42100
#	57785
#	78240
#	90625
#	104633
#	124843
#	140190
#	157233
#	169115
#	185675
#	196575
#	220720
#	232288
#	243413
#	255530
#	270115
#	282238
#
# Disc length: 4199
#
# Revision: 2
# Processed by: cddbd v1.5.1PL0 Copyright (c) Steve Scherf et al.
# Submitted via: dBpowerAMP V4.0
# Normalized: r1:TSWAP
#
DISCID=24106514
DTITLE=Various Artist - Soul and Blues Vol. 1
DYEAR=1995
DGENRE=Soul
TTITLE0=Ike and Tina Turner - Nutbush City Limits
TTITLE1=Jimmy Castor Bunsch - Troglodyte
TTITLE2=James Brown - Get On The Good Foot
TTITLE3=Ben E King - Supernatural Thing
TTITLE4=Rare Earth - Hy Big Brother
TTITLE5=R B Greaves - Take A Letter Maria
TTITLE6=George Mc Crar - I Can't Leave You Alone
TTITLE7=Carol Douglas - Doctor's Orders
TTITLE8=Chi-Lites - I Found Sunshine
TTITLE9=Mud - Under The Boardwalk
TTITLE10=Drifters - Up On The Roof
TTITLE11=Jimmy Cliff - Sitting In Limbo
TTITLE12=Sam and Dave - Hold On I'm Coming
TTITLE13=La Toya Jackson - Sexual Feeling
TTITLE14=George Mc Crae - Been So Long
TTITLE15=John Lee Hooker - Boom Boom
TTITLE16=B B King - Please Love
TTITLE17=Muddy Waters - Baby Please Don't Go
TTITLE18=Canned Heat - Got My Mojo Working
TTITLE19=Carol Douglas - Midnight Love Affair
EXTD=
EXTT0=
EXTT1=
EXTT2=
EXTT3=
EXTT4=
EXTT5=
EXTT6=
EXTT7=
EXTT8=
EXTT9=
EXTT10=
EXTT11=
EXTT12=
EXTT13=
EXTT14=
EXTT15=
EXTT16=
EXTT17=
EXTT18=
EXTT19=
PLAYORDER=
